<svg version="1.1" id="Layer_1" xmlns="http://www.w3.org/2000/svg" xmlns:xlink="http://www.w3.org/1999/xlink" x="0px" y="0px"
	 width="100%" viewBox="0 0 730 728" enable-background="new 0 0 730 728" xml:space="preserve">
<path fill="#000000" opacity="1.000000" stroke="none" 
	d="
M14.999998,729.000000 
	C10.336496,729.000000 5.672992,729.000000 1.004744,729.000000 
	C1.000000,520.311340 1.000000,311.622650 1.319938,102.126190 
	C2.082152,101.979065 2.809637,102.593369 2.925638,103.307053 
	C7.801269,133.303116 24.107264,155.169693 50.901951,168.849548 
	C70.159729,178.681473 90.807350,179.495651 111.641174,174.655258 
	C132.412949,169.829285 148.907974,157.984573 161.204681,141.007935 
	C172.006149,126.095612 177.239517,109.163483 177.265564,90.237823 
	C177.291336,71.513496 172.620590,54.525639 161.893295,39.698845 
	C147.719528,20.108496 128.883041,6.858766 104.368942,2.933449 
	C103.498413,2.794055 102.786072,1.666830 102.000000,1.000000 
	C311.579132,1.000000 521.158264,1.000000 731.000000,1.000000 
	C731.000000,137.688568 731.000000,274.377289 730.651367,411.870789 
	C729.870667,411.828827 729.166382,411.018707 729.047119,410.130066 
	C726.986816,394.771332 726.081299,379.159515 722.696167,364.103760 
	C719.167908,348.411194 714.030396,332.955353 708.204041,317.936157 
	C700.931152,299.188232 688.458862,283.825195 673.756104,270.104218 
	C663.210327,260.262665 651.199768,252.759232 638.169495,247.220261 
	C617.739197,238.535660 596.159180,233.098740 574.004578,232.295471 
	C555.881958,231.638382 537.653198,230.826050 519.449341,233.791351 
	C502.293671,236.585922 486.069672,241.808945 470.567169,249.263229 
	C459.120392,254.767303 448.664429,261.910583 438.967590,270.319733 
	C427.583344,280.192261 417.566833,291.058868 409.553375,303.813354 
	C408.732666,305.119690 407.080353,305.903534 405.813904,306.929810 
	C405.208710,305.384369 404.088806,303.842743 404.077362,302.292908 
	C403.951385,285.294861 404.000610,268.295593 403.997070,251.296631 
	C403.995544,243.991867 403.024323,243.003433 395.831757,243.003021 
	C352.834381,243.000565 309.836853,243.063705 266.839844,242.938705 
	C259.966888,242.918732 258.938568,243.945541 258.942047,250.853409 
	C259.019897,406.010498 258.993805,561.167664 259.043427,716.324768 
	C259.044769,720.549988 259.667175,724.774902 260.000000,729.000000 
	C227.977982,729.000000 195.955978,729.000000 163.126770,728.672302 
	C162.878983,726.023193 163.926941,723.702026 163.928085,721.380310 
	C164.005081,564.901001 163.978943,408.421570 164.058792,251.942215 
	C164.062439,244.799393 162.920929,243.924469 156.268692,243.941757 
	C111.608200,244.057831 66.947273,244.001389 22.286484,244.002579 
	C14.005795,244.002808 14.002502,244.006317 14.002460,252.386719 
	C14.001674,407.033020 13.993812,561.679321 14.043433,716.325623 
	C14.044788,720.550537 14.667195,724.775208 14.999998,729.000000 
z"/>
<path fill="#B9B9B9" opacity="1.000000" stroke="none" 
	d="
M260.468658,729.000000 
	C259.667175,724.774902 259.044769,720.549988 259.043427,716.324768 
	C258.993805,561.167664 259.019897,406.010498 258.942047,250.853409 
	C258.938568,243.945541 259.966888,242.918732 266.839844,242.938705 
	C309.836853,243.063705 352.834381,243.000565 395.831757,243.003021 
	C403.024323,243.003433 403.995544,243.991867 403.997070,251.296631 
	C404.000610,268.295593 403.951385,285.294861 404.077362,302.292908 
	C404.088806,303.842743 405.208710,305.384369 405.813904,306.929810 
	C407.080353,305.903534 408.732666,305.119690 409.553375,303.813354 
	C417.566833,291.058868 427.583344,280.192261 438.967590,270.319733 
	C448.664429,261.910583 459.120392,254.767303 470.567169,249.263229 
	C486.069672,241.808945 502.293671,236.585922 519.449341,233.791351 
	C537.653198,230.826050 555.881958,231.638382 574.004578,232.295471 
	C596.159180,233.098740 617.739197,238.535660 638.169495,247.220261 
	C651.199768,252.759232 663.210327,260.262665 673.756104,270.104218 
	C688.458862,283.825195 700.931152,299.188232 708.204041,317.936157 
	C714.030396,332.955353 719.167908,348.411194 722.696167,364.103760 
	C726.081299,379.159515 726.986816,394.771332 729.047119,410.130066 
	C729.166382,411.018707 729.870667,411.828827 730.651367,412.337769 
	C731.000000,517.567810 731.000000,623.135681 731.000000,729.000000 
	C680.979492,729.000000 630.958435,729.000000 580.808899,728.672363 
	C580.121033,726.024353 579.075195,723.704590 579.072632,721.383667 
	C578.987427,643.925842 579.044067,566.467957 578.956909,489.010223 
	C578.943481,477.090454 578.741516,465.141724 577.875916,453.261108 
	C577.155396,443.371704 575.739868,433.485687 573.901123,423.736053 
	C571.183777,409.327393 565.279846,396.131287 555.509460,385.123810 
	C541.775208,369.650635 523.251648,364.764771 503.569794,364.217346 
	C494.009491,363.951447 484.237915,365.276306 474.825256,367.181519 
	C462.291351,369.718597 450.897797,375.155609 441.357849,384.089630 
	C428.324188,396.295532 420.977417,411.380646 416.586548,428.548096 
	C412.126678,445.985352 410.222687,463.682404 410.145386,481.459747 
	C409.805054,559.748962 410.013947,638.040588 409.955872,716.331238 
	C409.952728,720.554382 409.332794,724.777100 409.000000,729.000000 
	C359.645782,729.000000 310.291534,729.000000 260.468658,729.000000 
z"/>
<path fill="#B9B9B9" opacity="1.000000" stroke="none" 
	d="
M15.468656,729.000000 
	C14.667195,724.775208 14.044788,720.550537 14.043433,716.325623 
	C13.993812,561.679321 14.001674,407.033020 14.002460,252.386719 
	C14.002502,244.006317 14.005795,244.002808 22.286484,244.002579 
	C66.947273,244.001389 111.608200,244.057831 156.268692,243.941757 
	C162.920929,243.924469 164.062439,244.799393 164.058792,251.942215 
	C163.978943,408.421570 164.005081,564.901001 163.928085,721.380310 
	C163.926941,723.702026 162.878983,726.023193 162.659790,728.672302 
	C113.979103,729.000000 64.958206,729.000000 15.468656,729.000000 
z"/>
<path fill="#000000" opacity="1.000000" stroke="none" 
	d="
M409.468628,729.000000 
	C409.332794,724.777100 409.952728,720.554382 409.955872,716.331238 
	C410.013947,638.040588 409.805054,559.748962 410.145386,481.459747 
	C410.222687,463.682404 412.126678,445.985352 416.586548,428.548096 
	C420.977417,411.380646 428.324188,396.295532 441.357849,384.089630 
	C450.897797,375.155609 462.291351,369.718597 474.825256,367.181519 
	C484.237915,365.276306 494.009491,363.951447 503.569794,364.217346 
	C523.251648,364.764771 541.775208,369.650635 555.509460,385.123810 
	C565.279846,396.131287 571.183777,409.327393 573.901123,423.736053 
	C575.739868,433.485687 577.155396,443.371704 577.875916,453.261108 
	C578.741516,465.141724 578.943481,477.090454 578.956909,489.010223 
	C579.044067,566.467957 578.987427,643.925842 579.072632,721.383667 
	C579.075195,723.704590 580.121033,726.024353 580.340210,728.672363 
	C523.312439,729.000000 466.624878,729.000000 409.468628,729.000000 
z"/>
<path fill="#B9B9B9" opacity="1.000000" stroke="none" 
	d="
M101.531349,1.000000 
	C102.786072,1.666830 103.498413,2.794055 104.368942,2.933449 
	C128.883041,6.858766 147.719528,20.108496 161.893295,39.698845 
	C172.620590,54.525639 177.291336,71.513496 177.265564,90.237823 
	C177.239517,109.163483 172.006149,126.095612 161.204681,141.007935 
	C148.907974,157.984573 132.412949,169.829285 111.641174,174.655258 
	C90.807350,179.495651 70.159729,178.681473 50.901951,168.849548 
	C24.107264,155.169693 7.801269,133.303116 2.925638,103.307053 
	C2.809637,102.593369 2.082152,101.979065 1.319938,101.659210 
	C1.000000,93.979103 1.000000,85.958199 1.319979,77.809448 
	C2.287273,75.405663 3.030413,73.152054 3.566679,70.850250 
	C7.703933,53.092014 16.349045,38.187168 29.719757,25.524603 
	C42.722404,13.210609 57.721123,5.915344 75.133423,2.924544 
	C75.844818,2.802351 76.381775,1.664600 77.000000,1.000001 
	C85.020897,1.000000 93.041801,1.000000 101.531349,1.000000 
z"/>
<path fill="#000000" opacity="1.000000" stroke="none" 
	d="
M76.531342,1.000001 
	C76.381775,1.664600 75.844818,2.802351 75.133423,2.924544 
	C57.721123,5.915344 42.722404,13.210609 29.719757,25.524603 
	C16.349045,38.187168 7.703933,53.092014 3.566679,70.850250 
	C3.030413,73.152054 2.287273,75.405663 1.319979,77.340797 
	C1.000000,51.739792 1.000000,26.479588 1.000000,1.000000 
	C26.020468,1.000000 51.041576,1.000000 76.531342,1.000001 
z"/>
</svg>